<?xml version="1.0" encoding="iso-8859-1"?>
<!-- Generator: Adobe Illustrator 19.0.0, SVG Export Plug-In . SVG Version: 6.00 Build 0)  -->
<svg version="1.1" id="Layer_1" xmlns="http://www.w3.org/2000/svg" xmlns:xlink="http://www.w3.org/1999/xlink" x="0px" y="0px"
	 viewBox="0 0 461.457 461.457" style="enable-background:new 0 0 461.457 461.457;" xml:space="preserve">
<g>
	<g>
		<path d="M455.069,218.447L215.784,50.644c-4.582-3.213-10.57-3.609-15.534-1.026c-4.964,2.582-8.079,7.712-8.079,13.308v105.923
			L23.612,50.644c-4.582-3.213-10.57-3.609-15.534-1.026C3.114,52.2,0,57.33,0,62.925V398.53c0,5.595,3.114,10.726,8.079,13.308
			c4.991,2.596,10.977,2.169,15.534-1.026l168.559-118.204v105.923c0,5.595,3.114,10.726,8.079,13.308
			c4.991,2.596,10.977,2.169,15.534-1.026l239.284-167.804c4.004-2.808,6.388-7.391,6.388-12.281
			C461.457,225.838,459.073,221.254,455.069,218.447z M192.171,255.966L30,369.691V91.765L192.171,205.49V255.966z M222.171,369.691
			V91.765l198.161,138.963L222.171,369.691z"/>
	</g>
</g>
<g>
</g>
<g>
</g>
<g>
</g>
<g>
</g>
<g>
</g>
<g>
</g>
<g>
</g>
<g>
</g>
<g>
</g>
<g>
</g>
<g>
</g>
<g>
</g>
<g>
</g>
<g>
</g>
<g>
</g>
</svg>
